<svg width="178" height="165" viewBox="0 0 178 165" fill="none" xmlns="http://www.w3.org/2000/svg">
<path d="M45.0458 0.0459442C44.6992 0.0737 43.5761 0.198624 42.55 0.323547C21.9594 2.71097 5.05699 18.2986 0.938858 38.6888C-0.905288 47.8499 0.00985217 59.6065 3.3099 69.5448C6.80408 79.9967 12.6693 89.13 22.6804 99.693C27.4225 104.69 31.4713 108.438 44.6992 120.097C47.9022 122.915 51.4657 126.066 52.6027 127.107C66.8012 139.877 76.6598 150.592 85.1318 162.46L85.8751 163.507C86.5395 164.444 87.6165 165 88.7646 165C89.9104 164.991 90.9784 164.419 91.6203 163.47L92.3974 162.321C100.121 150.911 109.203 140.668 122.694 128.162C125.342 125.691 128.351 122.984 136.934 115.35C150.19 103.524 156.97 96.7087 162.461 89.6713C171.377 78.2201 175.883 67.4212 177.214 54.2348C177.478 51.5143 177.45 45.0044 177.145 42.6447C175.689 31.4711 171.03 21.8659 163.307 14.1345C155.584 6.40315 145.975 1.72546 134.827 0.281906C132.151 -0.0512238 126.327 -0.0512238 123.595 0.281906C113.432 1.57278 104.475 5.65359 96.9731 12.4133C94.3248 14.8008 91.3436 18.2014 89.5549 20.8804C89.139 21.505 88.7646 22.0185 88.723 22.0185C88.6814 22.0185 88.307 21.505 87.891 20.8804C86.1024 18.2014 83.1212 14.8008 80.4729 12.4133C73.1101 5.77852 64.2499 1.68382 54.433 0.379074C52.4086 0.101471 46.6404 -0.092865 45.0458 0.0459442Z" fill="black"/>
<path d="M45.0458 0.0459442C44.6992 0.0737 43.5761 0.198624 42.55 0.323547C21.9594 2.71097 5.05699 18.2986 0.938858 38.6888C-0.905288 47.8499 0.00985217 59.6065 3.3099 69.5448C6.80408 79.9967 12.6693 89.13 22.6804 99.693C27.4225 104.69 31.4713 108.438 44.6992 120.097C47.9022 122.915 51.4657 126.066 52.6027 127.107C66.8012 139.877 76.6598 150.592 85.1318 162.46L85.8751 163.507C86.5395 164.444 87.6165 165 88.7646 165C89.9104 164.991 90.9784 164.419 91.6203 163.47L92.3974 162.321C100.121 150.911 109.203 140.668 122.694 128.162C125.342 125.691 128.351 122.984 136.934 115.35C150.19 103.524 156.97 96.7087 162.461 89.6713C171.377 78.2201 175.883 67.4212 177.214 54.2348C177.478 51.5143 177.45 45.0044 177.145 42.6447C175.689 31.4711 171.03 21.8659 163.307 14.1345C155.584 6.40315 145.975 1.72546 134.827 0.281906C132.151 -0.0512238 126.327 -0.0512238 123.595 0.281906C113.432 1.57278 104.475 5.65359 96.9731 12.4133C94.3248 14.8008 91.3436 18.2014 89.5549 20.8804C89.139 21.505 88.7646 22.0185 88.723 22.0185C88.6814 22.0185 88.307 21.505 87.891 20.8804C86.1024 18.2014 83.1212 14.8008 80.4729 12.4133C73.1101 5.77852 64.2499 1.68382 54.433 0.379074C52.4086 0.101471 46.6404 -0.092865 45.0458 0.0459442Z" fill="url(#paint0_radial_2013_94)"/>
<defs>
<radialGradient id="paint0_radial_2013_94" cx="0" cy="0" r="1" gradientUnits="userSpaceOnUse" gradientTransform="translate(88.6972 6.36098) rotate(90) scale(126.834 136.362)">
<stop stop-color="#FFA6C1"/>
<stop offset="1" stop-color="#FF6A60"/>
</radialGradient>
</defs>
</svg>
