<svg width="244" height="206" viewBox="0 0 244 206" fill="none" xmlns="http://www.w3.org/2000/svg">
<path d="M182.774 21.6209C184.723 15.1606 193.871 15.1606 195.82 21.6209L200.117 35.8659C200.985 38.7426 203.635 40.711 206.639 40.711H221.561C228.038 40.711 230.861 48.8979 225.76 52.8894L212.839 63.0001C210.626 64.7314 209.704 67.6435 210.515 70.3332L215.242 86.0018C217.163 92.3686 209.758 97.4332 204.521 93.3349L193.495 84.7075C191.029 82.7775 187.565 82.7775 185.098 84.7075L174.073 93.3349C168.836 97.4332 161.431 92.3686 163.352 86.0018L168.079 70.3332C168.89 67.6435 167.967 64.7315 165.755 63.0001L152.834 52.8894C147.733 48.8979 150.556 40.711 157.033 40.711H171.954C174.959 40.711 177.609 38.7425 178.477 35.8658L182.774 21.6209Z" fill="#D9D9D9"/>
<path d="M182.774 21.6209C184.723 15.1606 193.871 15.1606 195.82 21.6209L200.117 35.8659C200.985 38.7426 203.635 40.711 206.639 40.711H221.561C228.038 40.711 230.861 48.8979 225.76 52.8894L212.839 63.0001C210.626 64.7314 209.704 67.6435 210.515 70.3332L215.242 86.0018C217.163 92.3686 209.758 97.4332 204.521 93.3349L193.495 84.7075C191.029 82.7775 187.565 82.7775 185.098 84.7075L174.073 93.3349C168.836 97.4332 161.431 92.3686 163.352 86.0018L168.079 70.3332C168.89 67.6435 167.967 64.7315 165.755 63.0001L152.834 52.8894C147.733 48.8979 150.556 40.711 157.033 40.711H171.954C174.959 40.711 177.609 38.7425 178.477 35.8658L182.774 21.6209Z" fill="url(#paint0_radial_2013_93)"/>
<path d="M77.9775 49.386C80.9008 39.6957 94.6218 39.6956 97.5451 49.386L105.272 75.0003C106.574 79.3153 110.549 82.268 115.056 82.268H141.585C151.3 82.268 155.534 94.5484 147.883 100.536L125.147 118.326C121.828 120.923 120.444 125.291 121.661 129.326L130.033 157.076C132.914 166.626 121.807 174.223 113.951 168.075L94.0591 152.51C90.3596 149.615 85.163 149.615 81.4635 152.51L61.5715 168.075C53.7154 174.223 42.6087 166.626 45.4898 157.076L53.8613 129.326C55.0784 125.291 53.6941 120.923 50.3753 118.326L27.64 100.536C19.9888 94.5484 24.2225 82.268 33.9378 82.268H60.4664C64.9735 82.268 68.9484 79.3153 70.2502 75.0003L77.9775 49.386Z" fill="#D9D9D9"/>
<path d="M77.9775 49.386C80.9008 39.6957 94.6218 39.6956 97.5451 49.386L105.272 75.0003C106.574 79.3153 110.549 82.268 115.056 82.268H141.585C151.3 82.268 155.534 94.5484 147.883 100.536L125.147 118.326C121.828 120.923 120.444 125.291 121.661 129.326L130.033 157.076C132.914 166.626 121.807 174.223 113.951 168.075L94.0591 152.51C90.3596 149.615 85.163 149.615 81.4635 152.51L61.5715 168.075C53.7154 174.223 42.6087 166.626 45.4898 157.076L53.8613 129.326C55.0784 125.291 53.6941 120.923 50.3753 118.326L27.64 100.536C19.9888 94.5484 24.2225 82.268 33.9378 82.268H60.4664C64.9735 82.268 68.9484 79.3153 70.2502 75.0003L77.9775 49.386Z" fill="url(#paint1_radial_2013_93)"/>
<defs>
<radialGradient id="paint0_radial_2013_93" cx="0" cy="0" r="1" gradientUnits="userSpaceOnUse" gradientTransform="translate(189.297 113.292) rotate(-90) scale(90.5789 84.0998)">
<stop stop-color="#FFA6C1"/>
<stop offset="1" stop-color="#FF6A60"/>
</radialGradient>
<radialGradient id="paint1_radial_2013_93" cx="0" cy="0" r="1" gradientUnits="userSpaceOnUse" gradientTransform="translate(87.7613 198.712) rotate(-90) scale(145.317 134.923)">
<stop stop-color="#FFA6C1"/>
<stop offset="1" stop-color="#FF6A60"/>
</radialGradient>
</defs>
</svg>
