<svg width="181" height="182" viewBox="0 0 181 182" fill="none" xmlns="http://www.w3.org/2000/svg">
<path d="M178.365 33.7697L40.2867 171.848C39.4472 172.687 38.4065 173.297 37.264 173.62L9.78745 181.385C4.74512 182.81 0.000677592 178.352 1.10939 173.231L7.43979 143.991C7.72205 142.687 8.37377 141.492 9.31703 140.549L147.23 2.63542C149.943 -0.0772624 154.341 -0.0772624 157.054 2.63542L178.365 23.9462C181.077 26.6589 181.077 31.057 178.365 33.7697Z" fill="#D9D9D9"/>
<path d="M178.365 33.7697L40.2867 171.848C39.4472 172.687 38.4065 173.297 37.264 173.62L9.78745 181.385C4.74512 182.81 0.000677592 178.352 1.10939 173.231L7.43979 143.991C7.72205 142.687 8.37377 141.492 9.31703 140.549L147.23 2.63542C149.943 -0.0772624 154.341 -0.0772624 157.054 2.63542L178.365 23.9462C181.077 26.6589 181.077 31.057 178.365 33.7697Z" fill="url(#paint0_radial_55_1849)"/>
<defs>
<radialGradient id="paint0_radial_55_1849" cx="0" cy="0" r="1" gradientUnits="userSpaceOnUse" gradientTransform="translate(161.15 19.85) rotate(135) scale(184.96 33.8459)">
<stop stop-color="#FFA6C1"/>
<stop offset="1" stop-color="#FF6A60"/>
</radialGradient>
</defs>
</svg>
