<svg width="614" height="489" viewBox="0 0 614 489" fill="none" xmlns="http://www.w3.org/2000/svg">
<path d="M753.897 174.568C747.078 187.707 735.659 199.264 726.688 210.937C699.762 245.973 669.545 279.664 638.965 311.519C594.865 357.456 547.424 397.823 496.863 436.317C477.119 451.349 457.579 464.918 435.169 475.873C426.114 480.299 390.452 500.304 401.761 472.766C413.09 445.179 438.278 422.215 458.597 400.958C493.204 364.755 530.366 331.228 564.928 294.945C607.686 250.057 654.871 209.81 690.482 158.439C697.278 148.636 709.043 133.267 709.202 120.599C709.39 105.584 686.123 117.137 681.411 119.811C647.708 138.936 620.702 171.25 594.436 199.164C569.355 225.819 544.282 252.179 518.038 277.685C479.782 314.865 444.331 350.908 399.039 379.985C391.606 384.756 313.114 431.72 325.841 387.689C329.395 375.393 343.742 364.474 352.208 356.294C387.167 322.518 422.923 289.563 458.599 256.551C500.72 217.576 538.814 175.66 575.888 131.812C580.616 126.22 626.417 58.9521 596.191 65.7733C571.843 71.268 550.12 90.8279 532.327 107.073C502.859 133.979 476.287 164.124 448.727 192.925C411.005 232.345 371.737 276.398 325.049 305.184C305.698 317.116 275.535 333.426 251.628 329.902C233.087 327.169 260.323 303.908 263.708 300.311C314.731 246.085 369.023 193.97 417.181 137.177C428.684 123.613 479.358 74.1333 464.168 50.6846C446.622 23.5996 310.601 173.947 300.413 183.5C272.325 209.836 237.001 242.202 197.786 250.444C182.671 253.621 182.434 245.989 190.191 235.573C201.053 220.987 213.451 206.77 225.665 193.286C251.625 164.628 281.485 141.253 304.461 109.706C318.295 90.7115 334.096 69.6833 340.165 46.5524C345.62 25.7639 328.244 31.9849 317.025 39.5185C271.07 70.3793 236.758 118.065 195.173 154.507C179.439 168.296 145.234 199.838 121.546 195.38C107.751 192.784 149.916 138.795 152.171 135.537C178.46 97.5448 217.645 57.2527 229.295 11.2479C236.876 -18.6858 185.363 32.6052 181.308 36.2428C121.914 89.5162 61.3276 141.382 1.8864 194.608" stroke="#211F2D" stroke-width="2" stroke-linecap="round"/>
</svg>
