<svg width="623" height="502" viewBox="0 0 623 502" fill="none" xmlns="http://www.w3.org/2000/svg">
<path d="M-178 402.666C-74.8226 334.885 20.8338 249.165 89.7124 145.789C112.515 111.565 147.05 58.3576 138.078 14.4728C126.857 -40.4183 -1.86164 89.6472 -8.06536 97.3955C-38.9271 135.941 -162.484 330.713 -67.6732 374.415C11.9858 411.133 115.426 321.574 166.052 272.397C185.807 253.207 205.883 230.057 222.523 208.046C234.226 192.565 262.82 160.331 261.477 137.941C260.058 114.275 218.933 136.7 213.634 140.034C181.126 160.489 156.724 193.584 135.987 225.049C94.0298 288.713 49.1695 380.302 62.7843 459.169C69.8045 499.835 105.423 509.329 139.647 494.221C232.926 453.045 421.842 203.493 337.556 260.887C281.992 298.722 206.81 391.081 209.974 462.831C210.283 469.843 212.99 478.781 219.386 481.665C245.731 493.546 297.819 446.429 303.569 441.904C419.71 350.505 516.815 237.285 622 134.279" stroke="#211F2D" stroke-width="2" stroke-linecap="round"/>
</svg>
