<svg width="643" height="397" viewBox="0 0 643 397" fill="none" xmlns="http://www.w3.org/2000/svg">
<path d="M1.08813 547.687C10.2379 539.109 97.7319 476.501 196.594 346.121C210.494 326.546 224.171 306.583 236.08 285.727C242.028 275.311 249.361 261.146 253.966 250.028C259.931 235.627 265.787 219.318 265.1 203.447C264.634 192.694 258.737 177.714 245.31 179.545C232.945 181.231 224.744 196.486 220.259 206.389C203.919 242.471 201.167 282.743 207.777 321.542C209.016 328.815 210.872 337.47 216.247 342.978C225.391 352.348 240.159 348.809 250.337 343.199C263.323 336.041 273.293 323.511 282.174 312.022C298.12 291.394 312.399 269.222 326.195 247.121C336.519 230.582 344.505 212.912 351.666 194.803C360.658 172.063 369.278 148.404 368.008 123.58C367.658 116.747 367.037 105.366 361.512 100.167C352.335 91.532 335.244 108.988 330.876 114.868C317.763 132.523 309.375 156.198 306.863 177.902C304.446 198.781 308.338 220.832 315.129 240.586C319.231 252.515 326.947 273.477 341.772 275.972C349.538 277.28 355.772 273.662 361.977 269.544C376.528 259.889 387.198 245.371 396.441 230.864C417.772 197.383 434.886 160.678 448.643 123.521C453.231 111.132 460.066 89.8293 463.253 76.3447C465.242 67.9282 470.11 50.876 463.532 42.644C455.915 33.1121 442.721 47.847 438.713 53.5069C423.996 74.2877 420.09 104.806 419.209 129.334C418.714 143.098 419.605 163.339 422.952 176.986C425.091 185.704 429.53 196.998 437.523 202.577C453.745 213.901 471.271 195.877 481.022 185.196C494.759 170.15 504.537 153.109 513.925 135.121C527.767 108.598 537.413 81.7198 544.459 52.6656C547.591 39.751 551.838 24.2377 547.725 10.9534C546.983 8.5545 543.817 1.26626 539.725 1.18377C530.276 0.993337 525.187 22.2308 523.803 27.0916C520.056 40.256 518.191 51.2524 517.608 65.014C517.208 74.4553 515.753 91.1952 525.051 98.7453C537.556 108.899 556.407 101.275 568.265 96.9682C578.508 93.2478 588.351 88.4369 597.954 83.2915C641.008 60.2226 662.355 34.3205 700 10.9534" stroke="white" stroke-width="2" stroke-linecap="round"/>
</svg>
