<svg width="570" height="485" viewBox="0 0 570 485" fill="none" xmlns="http://www.w3.org/2000/svg">
<path d="M-127 286.32C-117.472 273.084 -103.182 262.304 -91.542 251.008C-56.6051 217.106 -18.2941 185.192 20.1198 155.34C75.5164 112.289 133.668 75.844 194.922 41.9373C218.841 28.6969 242.305 17.0191 268.482 8.64767C279.058 5.26529 321.124 -10.8594 304.406 17.359C287.659 45.6273 256.541 66.6481 231.002 86.5827C187.506 120.534 141.65 151.161 98.1897 185.207C44.4232 227.327 -13.4305 263.683 -60.4384 314.01C-69.4092 323.614 -84.684 338.493 -86.8764 352.277C-89.4751 368.616 -62.2684 359.73 -56.706 357.566C-16.9161 342.088 17.6742 311.165 50.7568 284.92C82.3464 259.86 113.881 235.119 146.556 211.496C194.187 177.061 238.578 143.418 292.587 118.939C301.45 114.922 394.503 76.2328 373.612 122.206C367.778 135.044 350.397 144.66 339.864 152.229C296.371 183.478 252.139 213.706 207.985 244.008C155.856 279.784 107.647 319.408 60.2434 361.3C54.1968 366.643 -6.45309 432.676 27.5847 430.057C55.0035 427.947 81.8026 410.086 103.788 395.212C140.201 370.577 173.972 341.948 208.607 314.943C256.012 277.981 305.841 236.215 361.326 212.274C384.323 202.351 419.806 189.378 445.305 197.03C465.083 202.964 431.684 223.981 427.421 227.364C363.156 278.346 295.663 326.507 234.112 380.745C219.411 393.699 156.283 439.563 169.106 467.546C183.917 499.869 356.161 357.645 368.791 348.855C403.608 324.622 447.275 294.967 491.339 292.232C508.322 291.177 507.365 299.535 497.248 309.654C483.083 323.824 467.301 337.347 451.837 350.099C418.969 377.204 382.691 397.927 352.617 428.657C334.509 447.159 313.932 467.565 303.629 491.814C294.369 513.607 314.304 509.594 327.734 503.169C382.75 476.85 427.755 430.335 478.897 397.234C498.247 384.71 540.563 355.776 565.676 364.411C580.301 369.439 525.73 421.575 522.753 424.768C488.039 461.995 438.9 499.675 418.867 547.97C405.833 579.395 470.164 531.689 475.165 528.37" stroke="white" stroke-width="2" stroke-linecap="round"/>
</svg>
