<svg width="541" height="441" viewBox="0 0 541 441" fill="none" xmlns="http://www.w3.org/2000/svg">
<path d="M1 514C8.10769 512.916 13.1819 508.762 18.5497 504.108C31.8252 492.599 42.8521 479.056 53.5428 465.18C74.0791 438.524 94.3241 411.313 112.148 382.749C121.05 368.484 132.1 349.042 139.164 333.716C148.314 313.866 157.42 291.335 157.352 269.048C157.306 253.95 149.903 232.619 131.028 234.427C113.645 236.093 101.32 257.014 94.4922 270.644C69.6166 320.3 63.5027 376.596 70.5608 431.357C71.8838 441.622 73.9917 453.859 81.197 461.883C93.4548 475.533 114.302 471.405 128.847 464.116C147.407 454.815 162.051 437.812 175.115 422.21C198.571 394.193 219.782 363.918 240.315 333.716C255.68 311.116 267.84 286.797 278.871 261.816C292.723 230.446 306.106 197.768 305.727 162.899C305.623 153.302 305.395 137.313 297.963 129.714C285.617 117.092 260.739 140.597 254.301 148.593C234.973 172.601 221.915 205.315 217.181 235.597C212.627 264.728 216.827 295.857 225.211 323.931C230.274 340.885 239.883 370.704 260.47 375.038C271.255 377.309 280.174 372.589 289.082 367.167C309.969 354.453 325.705 334.704 339.444 314.89C371.151 269.162 397.146 218.675 418.471 167.366C425.582 150.258 436.337 120.782 441.552 102.06C444.806 90.3741 452.573 66.7456 443.838 54.8352C433.725 41.0439 414.449 60.9546 408.526 68.6622C386.78 96.9619 379.602 139.521 376.99 173.854C375.524 193.12 375.63 221.543 379.542 240.862C382.042 253.203 387.613 269.285 398.475 277.557C420.518 294.345 446.037 270.068 460.271 255.647C480.324 235.33 494.954 211.994 509.091 187.309C529.938 150.911 544.936 113.778 556.422 73.4485C561.528 55.522 568.339 34.0156 563.336 15.1621C562.433 11.7575 558.417 1.36247 552.7 1.01597C539.5 0.215988 531.189 29.6988 528.981 36.4345C523.002 54.6765 519.775 69.9857 518.185 89.2433C517.095 102.455 514.119 125.839 526.694 136.947C543.607 151.886 570.392 142.262 587.214 136.893C601.744 132.256 615.777 126.068 629.493 119.397C690.987 89.4885 643.936 108.122 697.884 77.4903" stroke="white" stroke-width="2" stroke-linecap="round"/>
</svg>
