<svg width="550" height="488" viewBox="0 0 550 488" fill="none" xmlns="http://www.w3.org/2000/svg">
<path d="M-23.6924 333.045C-7.50603 340.713 11.2564 317.523 21.4911 308.206C51.5652 280.83 82.8641 253.233 110.954 223.824C149.727 183.231 182.811 133.872 197.652 79.1648C202.528 61.1913 215.987 -8.60739 174.761 2.88176C143.148 11.6917 121.542 53.8162 107.115 79.3176C66.1264 151.768 41.1327 233.677 31.6045 316.307C28.815 340.497 27.5158 369.638 33.2282 393.958C37.0146 410.079 47.6931 434.316 65.6192 439.66C76.0496 442.769 86.2118 438.5 95.6679 434.74C124.182 423.402 151.723 407.037 176.975 389.747C220.717 359.796 253.641 320.266 280.102 274.482C293.588 251.149 305.483 224.506 315 199.178C318.628 189.523 328.964 166.606 325.244 154.514C315.427 122.602 269.256 153.521 257.64 164.162C216.163 202.158 180.01 255.151 157.969 306.889C140.93 346.884 127.746 395.752 133.105 439.576C135.65 460.386 146.023 479.791 167.078 486.188C202.863 497.061 245.738 467.484 273.502 448.944C331.206 410.412 371.321 357.729 396.937 293.439C401.801 281.233 423.002 235.485 406.234 221.867C387.436 206.6 361.428 247.645 355.209 257.376C324.915 304.782 302.977 359.536 290.698 414.385C283.052 448.535 276.087 488.144 280.769 523.184C290.781 598.099 407.067 493.923 426.763 474.124C453.787 446.958 473.838 408.866 482.683 371.662C483.481 368.302 486.918 349.917 482.713 344.495C474.053 333.331 456.416 357.195 447.569 368.217C423.527 398.167 407.004 433.419 400.485 471.294C395.05 502.872 392.876 540.925 399.138 572.572C403.769 595.976 413.452 605.116 435.417 593.556C469.256 575.747 499.484 546.115 523.262 516.551C534.411 502.691 553.489 473.112 547.142 453.607C540.254 432.438 517.833 472.995 517.111 474.562C513.881 481.571 480.943 553.242 498.101 556.956C506.33 558.737 517.024 548.493 520.941 544.779" stroke="white" stroke-width="2" stroke-linecap="round"/>
</svg>
